<svg version="1.1" xmlns="http://www.w3.org/2000/svg" xmlns:xlink="http://www.w3.org/1999/xlink" width="117.17371" height="100.87474" viewBox="0,0,117.17371,100.87474"><g transform="translate(-185.27516,-130.35736)"><g data-paper-data="{&quot;isPaintingLayer&quot;:true}" fill-rule="nonzero" stroke-linejoin="miter" stroke-miterlimit="10" stroke-dasharray="" stroke-dashoffset="0" style="mix-blend-mode: normal"><g><g data-paper-data="{&quot;index&quot;:null}"><g><path d="M260.10631,207.05018l-3.15488,-5.03075l4.22583,-2.6501l3.15488,5.03075z" fill="#000000" stroke="none" stroke-width="0" stroke-linecap="butt"/><path d="M281.65889,227.77276c0,0 0.07825,1.26575 -0.9562,1.3386c-2.71067,0.1909 -15.90816,-0.15097 -15.90816,-0.15097l-9.9761,-14.4891c0,0 7.01669,-2.18114 9.74102,-3.31952c1.05692,-0.44164 8.0137,8.73896 8.80524,8.70022c0.82275,-0.04027 -1.60082,2.84679 -1.52667,3.65287c0.08371,0.91014 2.63353,-0.2451 3.17013,-0.2451c1.5119,0 4.27547,0.47505 4.27547,0.47505l2.37526,4.03795z" fill="#949494" stroke="#000000" stroke-width="2.5" stroke-linecap="butt"/><path d="M253.15574,213.52118l5.70063,-8.55094l2.9246,-0.58112l2.44228,0.83612l1.52138,2.35779l-0.23753,3.32537z" fill="#949494" stroke="#000000" stroke-width="2.5" stroke-linecap="butt"/><path d="M260.04399,212.09603l-1.90021,-0.9501l-0.71258,-2.13774" fill="none" stroke="#000000" stroke-width="2.5" stroke-linecap="round"/><path d="M270.02009,228.6041l1.90021,-5.70063" fill="none" stroke="#000000" stroke-width="2.5" stroke-linecap="round"/></g><g stroke="none" stroke-linecap="butt"><path d="M266.25665,228.27974l-10.16992,-12.77164l9.12586,-4.54021l1.36026,3.00741l5.18466,6.38923z" fill="#8c6200" stroke-width="NaN"/><path d="M258.57942,218.5236l-2.25813,-3.20357l8.94351,-3.971l1.38313,3.20357z" fill="#8c0081" stroke-width="NaN"/><path d="M265.85962,228.4988l3.75,-10.25l2.25,2l0.19822,4.28095l3.06964,-0.27925l3.39558,0.69924l0.91506,1.00548l1.2965,2.41859z" fill="#8c0081" stroke-width="0"/><g fill="#ffffff" stroke-width="0.5"><path d="M261.77494,216.52765c-0.00014,-0.00043 -0.00027,-0.00086 -0.00041,-0.0013c-0.08184,-0.26115 0.17932,-0.34299 0.17932,-0.34299c1.27986,-0.38655 2.11918,0.46231 2.00941,1.56755c-0.11067,-0.06846 -0.22571,0.01944 -0.22571,0.01944c-0.78022,0.59614 -1.56921,1.17565 -2.31177,1.81508c-0.45375,-0.11543 -0.82591,-0.33315 -0.90732,-0.65789c-0.11469,-0.45744 0.10781,-1.02187 0.28341,-1.41836c0.27006,-0.49744 0.56518,-0.7202 0.97306,-0.98153zM261.47402,217.90692c-0.06882,-0.09008 -0.19763,-0.10731 -0.28771,-0.03848c-0.09008,0.06882 -0.10731,0.19763 -0.03848,0.28771c0.06882,0.09008 0.19763,0.10731 0.28771,0.03848c0.09008,-0.06882 0.10731,-0.19763 0.03848,-0.28771zM262.74672,217.14974c0.09008,-0.06882 0.10731,-0.19763 0.03848,-0.28771c-0.06882,-0.09008 -0.19763,-0.10731 -0.28771,-0.03848c-0.09007,0.06882 -0.10731,0.19763 -0.03848,0.28771c0.06883,0.09008 0.19764,0.10731 0.28772,0.03848z"/><path d="M264.75324,217.0132c0.302,-0.23075 0.53276,0.07125 0.53276,0.07125l-0.07739,-0.03519c0.18779,0.09425 0.3473,0.23579 0.48397,0.40217l0.01024,-0.01635l0.01077,0.00675l0.08284,-0.07749l0.3227,0.34493c0.00981,0.01023 0.01915,0.02111 0.02795,0.03264c0.12744,0.16679 0.09555,0.40532 -0.07125,0.53276c-0.09076,0.06935 -0.20277,0.0915 -0.30655,0.07043c-0.00148,0.00663 -0.0025,0.01025 -0.0025,0.01025c-0.16307,0.57169 -0.36914,1.12101 -0.56277,1.67548c0.28258,-0.03317 0.5667,-0.06082 0.85314,-0.08151c0.78922,-0.05701 1.59427,-0.42367 2.3058,-0.06052c-0.04858,-0.02506 -0.16955,-0.08745 -0.22083,-0.11389l0.07011,-0.11583l-0.05392,-0.01657l0.11873,-0.38644c0.02199,-0.07484 0.06713,-0.14361 0.13386,-0.1946c0.1668,-0.12744 0.40532,-0.09555 0.53276,0.07125c0.02111,0.02763 0.03786,0.05723 0.05033,0.08796l0.15187,0.35187l-0.06224,0.02687c0.15855,0.29034 0.16959,0.55478 0.05741,1.02431c0.02832,0.10768 0.02201,0.25464 -0.14263,0.38044c-0.30201,0.23075 -0.53276,-0.07125 -0.53276,-0.07125l-0.09265,-0.37166c0.01282,-0.04202 0.02191,-0.08333 0.02845,-0.12372c-0.57141,0.07368 -1.37384,0.15536 -1.51527,0.1731c-0.658,0.08255 -1.30812,0.1668 -1.95597,0.25789c-0.05432,0.18382 -0.10442,0.36964 -0.1484,0.55838c-0.08503,0.3649 -0.11836,0.73289 -0.16399,1.10012c0.25952,-0.02119 0.54289,0.00298 0.89606,0.10187l0.44614,0.05966c0.09641,0.01289 0.1879,0.06257 0.25162,0.14596c0.12744,0.1668 0.09555,0.40532 -0.07125,0.53276c-0.03773,0.02883 -0.07913,0.04951 -0.12208,0.06231l-0.71476,0.23145l-0.00931,-0.02875c-0.56678,0.28934 -1.07802,0.40737 -1.96991,0.41584l-0.18697,-0.02115c0,0 -0.37673,-0.05039 -0.32634,-0.42711c0.00491,-0.03669 0.01291,-0.06933 0.02336,-0.09836c-0.01433,-0.02788 -0.02662,-0.0598 -0.03623,-0.09629c-0.09684,-0.36752 0.27068,-0.46437 0.27068,-0.46437c0.29334,-0.07604 0.53798,-0.16032 0.76438,-0.23337c0.08163,-0.48331 0.09705,-0.97213 0.20871,-1.45484c0.0205,-0.08863 0.04242,-0.17667 0.06555,-0.26423c-0.57944,0.08761 -1.15898,0.18245 -1.74265,0.28822c-0.01985,0.34805 -0.11751,0.65326 -0.37939,0.75791c-1.21588,0.48585 -0.87293,-1.66685 -0.75127,-2.06402l0.13331,-0.22619c0,0 0.21354,-0.31442 0.52795,-0.10088c0.01812,0.01231 0.03447,0.02495 0.04923,0.03784c0.61442,-0.50967 1.25552,-0.98553 1.89217,-1.47031c-0.01998,0.0643 -0.04311,0.12901 -0.06947,0.19395c-0.04057,0.09997 -0.37793,0.94783 -0.45557,1.02212c-0.23046,0.22051 -0.78393,0.31548 -1.34227,0.27773c0.01741,0.01782 0.03203,0.03603 0.04421,0.05441c0.18246,0.07274 0.22345,0.28727 0.22345,0.28727c0.02081,0.11021 0.05315,0.27435 0.08057,0.46236c0.68502,-0.13157 1.36381,-0.25996 2.04737,-0.36411c0.22453,-0.66466 0.48106,-1.31631 0.67007,-1.99564c0,0 0.01095,-0.03883 0.03837,-0.08763c-0.21885,-0.05087 -0.43306,-0.12561 -0.63892,-0.21373c0,0 -0.34839,-0.15193 -0.19645,-0.50032c0.10282,-0.23577 0.29561,-0.24239 0.40951,-0.22204c0.02409,-0.03816 0.0583,-0.07602 0.10556,-0.11212z"/></g></g></g><path d="M249.12269,200.64307l-1.18763,-15.20168c0,0 0.05333,-5.51103 1.7352,-6.53118c0.95481,-0.57916 4.04298,-2.93281 6.09158,-3.27646c2.5653,-0.43031 4.54981,1.89493 5.66353,2.33741c0.48628,0.1932 1.71137,4.38239 1.71137,4.38239c0,0 -0.13387,3.43598 -0.22249,5.71047c-0.13152,3.37576 -0.49009,12.57905 -0.49009,12.57905z" data-paper-data="{&quot;index&quot;:null}" fill="#949494" stroke="#000000" stroke-width="2.5" stroke-linecap="butt"/><g data-paper-data="{&quot;index&quot;:null}" fill="#949494" stroke="#000000" stroke-width="2"><path d="M204.10509,199.96575c0,0 -6.64286,-11.93942 -3.49459,-18.64127c1.13169,-2.40908 0.89596,-2.59479 2.69679,-6.62759c0.64865,-1.4526 1.4419,-2.94082 2.25333,-4.68416c2.17592,-4.67491 4.48262,-9.71385 4.48262,-9.71385c0,0 12.8362,2.13774 17.33941,2.13774c0.4348,0 21.53684,0.47359 21.97571,0.47078c10.74117,-0.06885 7.24001,-0.23325 7.24001,-0.23325c0,0 5.00242,-3.25087 6.6278,-2.9405c3.12122,0.596 6.09658,-2.66377 7.77886,2.9894c0.7907,2.65709 0.61267,2.95203 0.96648,6.59672c0.51648,5.32044 0.7566,13.44454 -1.04569,18.83477c-2.4256,7.25441 -7.20167,11.09865 -7.20167,11.09865z" stroke-linecap="butt"/><path d="M227.3438,199.0155c0,0 9.15072,-8.9704 8.79967,-18.34394c-0.36124,-4.29476 -5.1374,-13.07136 -5.1374,-13.07136l-4.03795,-4.98805l3.32537,4.27547c0,0 4.10165,-0.47068 6.34937,-0.72861c2.54497,-0.29205 8.13973,-0.93407 8.13973,-0.93407l-0.23753,-1.66268" stroke-linecap="round"/><path d="M256.65889,170.21299c0,0 3.11779,0.51281 5.78238,2.15324c3.24758,1.99934 6.16789,5.44311 6.30116,8.77418c0.13219,3.30408 -0.67646,8.08355 -3.45338,11.01242c-3.42658,3.61409 -9.1053,5.03108 -10.76089,4.83995c-4.48955,-0.51829 -8.18307,-8.6525 -8.46709,-10.60669c-0.78231,-5.3826 1.63974,-12.17764 2.58871,-13.45012c1.76938,-2.37258 8.00911,-2.72298 8.00911,-2.72298" stroke-linecap="round"/><path d="M206.54089,183.27694c0,-4.91169 3.12479,-7.68761 7.2084,-9.39624c1.2606,-0.52746 4.06037,-1.52997 5.49925,-1.52997c6.09996,0 10.09486,4.7358 10.09486,11.16373c0,6.42793 -5.65758,12.58889 -11.75755,12.58889c-6.09997,0 -11.04497,-6.3985 -11.04497,-12.82642z" stroke-linecap="butt"/></g><g data-paper-data="{&quot;index&quot;:null}" stroke="#000000" stroke-width="2" stroke-linecap="round"><path d="M186.50249,162.54255c0,0 9.29128,-3.19445 15.06491,-2.63222c2.48326,0.24182 5.43075,1.16842 6.52236,2.25527c1.26744,1.26191 0.45262,2.6991 0.10869,2.88967c-2.31986,1.28543 -7.52741,1.76367 -9.74516,1.54544c-3.88739,-0.38252 -12.17813,-3.98929 -12.17813,-3.98929" fill="#949494"/><path d="M203.62707,160.08303l0.13101,6.16515" fill="none"/></g><path d="M274.72403,178.89175l-10.60648,10.95464c0,0 -4.1655,3.60873 -6.04357,3.02367c-1.0662,-0.33213 -4.8747,-1.08825 -6.48857,-2.39604c-2.0209,-1.63764 -1.59215,-4.6644 -1.9979,-5.79202c-0.17716,-0.49235 2.15129,-4.18402 2.15129,-4.18402c0,0 2.6637,-2.17453 4.42697,-3.61399c2.61701,-2.13643 9.75174,-7.96092 9.75174,-7.96092z" data-paper-data="{&quot;index&quot;:null}" fill="#949494" stroke="#000000" stroke-width="2.5" stroke-linecap="butt"/><g data-paper-data="{&quot;index&quot;:null}"><g><path d="M210.97174,201.47255l3.15488,-5.03075l4.22583,2.6501l-3.15488,5.03075z" data-paper-data="{&quot;index&quot;:null}" fill="#000000" stroke="none" stroke-width="0" stroke-linecap="butt"/><path d="M220.00644,211.68347l-2.13774,4.513l-1.42516,4.513l-3.80042,2.37526l3.32537,0.71258l1.90021,1.90021l1.42516,0.9501l1.42516,2.13774l-3.80042,1.18763l-9.9761,-0.47505l-1.42516,-0.9501l-2.85031,-2.37526l-0.23753,-9.73857l7.36331,-7.83837z" fill="#949494" stroke="#000000" stroke-width="2.5" stroke-linecap="round"/><path d="M209.55528,207.64554l-0.47505,-4.513l2.37526,-2.13774h3.56289l3.32537,3.80042l2.37526,4.98805l-0.71258,1.90021z" fill="#949494" stroke="#000000" stroke-width="2.5" stroke-linecap="round"/><path d="M217.39365,204.08264l0.23753,2.61279l-3.56289,3.08784" fill="none" stroke="#000000" stroke-width="2.5" stroke-linecap="round"/></g><g stroke="none" stroke-linecap="butt"><path d="M203.13165,223.52974l-0.54493,-5.77164l8.50086,-8.29021l7.36026,2.63241l-2.56639,7.74899l-4.99894,3.51524z" fill="#8c6200" stroke-width="NaN"/><path d="M206.70442,211.2736l4.99187,-2.07857l7.06851,2.779l-1.36687,2.82857z" fill="#8c0081" stroke-width="NaN"/><path d="M216.36512,229.65422l-11.25551,-1.28042l-1.125,-5.625l7.32322,0.03095l3.06964,1.34575l3.39558,0.69924l0.91506,1.00548l1.29651,2.41859z" fill="#8c0081" stroke-width="0"/><g fill="#ffffff" stroke-width="0.5"><path d="M212.76429,213.59886c0.00036,-0.00027 0.00073,-0.00055 0.00109,-0.00082c0.21794,-0.16552 0.38347,0.05242 0.38347,0.05242c0.79756,1.07302 0.2835,2.15041 -0.7935,2.42184c0.02689,-0.12733 -0.0948,-0.20575 -0.0948,-0.20575c-0.82534,-0.53192 -1.63802,-1.07772 -2.49132,-1.55953c-0.04523,-0.46602 0.03344,-0.88994 0.31134,-1.07663c0.39147,-0.26297 0.99789,-0.245 1.43044,-0.21421c0.55953,0.08543 0.86915,0.28755 1.25329,0.58268zM211.08098,213.84471c0.09528,0.06141 0.22231,0.03394 0.28372,-0.06134c0.06141,-0.09529 0.03394,-0.22232 -0.06134,-0.28373c-0.09529,-0.06141 -0.22231,-0.03394 -0.28372,0.06134c-0.06141,0.09528 -0.03394,0.22231 0.06134,0.28372zM212.50851,214.72402c0.09529,0.06141 0.22231,0.03393 0.28372,-0.06135c0.06142,-0.09529 0.03395,-0.22231 -0.06133,-0.28372c-0.09529,-0.06141 -0.22232,-0.03394 -0.28373,0.06134c-0.06141,0.09528 -0.03394,0.22231 0.06134,0.28372z"/><path d="M213.3172,216.56541c0.31948,0.20589 0.11359,0.52536 0.11359,0.52536l0.00687,-0.08473c-0.02501,0.20863 -0.10409,0.40667 -0.21428,0.59165l0.01884,0.00409l-0.0027,0.01242l0.10098,0.05166l-0.2151,0.42052c-0.0063,0.0127 -0.01337,0.02517 -0.02123,0.03736c-0.11371,0.17645 -0.34892,0.22731 -0.52536,0.11359c-0.09601,-0.06187 -0.15483,-0.15974 -0.17019,-0.26452c-0.00673,0.00086 -0.01049,0.00113 -0.01049,0.00113c-0.59311,0.0404 -1.17976,0.03277 -1.76704,0.03858c0.12701,0.25459 0.24934,0.51252 0.36591,0.77498c0.3212,0.72316 0.93906,1.35623 0.83864,2.14874c0.0071,-0.05421 0.02478,-0.18916 0.03228,-0.24637l0.13274,0.02669l-0.00269,-0.05634l0.4038,-0.01931c0.07786,-0.00469 0.15786,0.01447 0.22846,0.05996c0.17644,0.11372 0.22729,0.34893 0.11357,0.52537c-0.01883,0.02923 -0.041,0.05502 -0.06568,0.07717l-0.27954,0.26217l-0.04638,-0.04945c-0.2194,0.24759 -0.46443,0.34763 -0.94419,0.40127c-0.0917,0.06315 -0.2321,0.10704 -0.40626,-0.0052c-0.31948,-0.20589 -0.11359,-0.52537 -0.11359,-0.52537l0.31824,-0.21316c0.04388,-0.00219 0.08582,-0.00765 0.12604,-0.01518c-0.26303,-0.51259 -0.61191,-1.23981 -0.67655,-1.36685c-0.30074,-0.59105 -0.6004,-1.1741 -0.90573,-1.75271c-0.19135,0.01121 -0.38314,0.02707 -0.57562,0.04968c-0.37212,0.04371 -0.72962,0.1371 -1.09057,0.21867c0.10792,0.23696 0.18125,0.51175 0.20795,0.87753l0.09512,0.43995c0.02056,0.09506 0.00484,0.19798 -0.05201,0.2862c-0.11372,0.17645 -0.34893,0.22731 -0.52537,0.11359c-0.03991,-0.02573 -0.07339,-0.05766 -0.1,-0.09373l-0.46006,-0.59397l0.02389,-0.01851c-0.46434,-0.43512 -0.74871,-0.87607 -1.05904,-1.71228l-0.04349,-0.18306c0,0 -0.08031,-0.37149 0.29118,-0.45181c0.03618,-0.00782 0.06961,-0.01136 0.10046,-0.01137c0.02138,-0.02294 0.04724,-0.04532 0.07831,-0.06673c0.31293,-0.2157 0.52864,0.09722 0.52864,0.09722c0.17098,0.25018 0.33321,0.45176 0.47868,0.63999c0.48237,-0.08706 0.94746,-0.23825 1.43944,-0.29686c0.09033,-0.01077 0.1806,-0.01999 0.27081,-0.02791c-0.27886,-0.51542 -0.56455,-1.02849 -0.86194,-1.54174c-0.33417,0.09932 -0.65442,0.11091 -0.84165,-0.09998c-0.86929,-0.97916 1.27219,-1.38632 1.68709,-1.40652l0.25799,0.04873c0,0 0.3682,0.0943 0.27389,0.46249c-0.00543,0.02122 -0.01178,0.04089 -0.01891,0.05915c0.68779,0.40525 1.35282,0.84705 2.02472,1.28166c-0.06727,0.00299 -0.13597,0.00317 -0.20601,0.00039c-0.1078,-0.00428 -1.01983,-0.03422 -1.11604,-0.08208c-0.28558,-0.14205 -0.56256,-0.63055 -0.71633,-1.16862c-0.01086,0.02242 -0.02303,0.04235 -0.0362,0.06004c-0.00657,0.19631 -0.1945,0.3076 -0.1945,0.3076c-0.09663,0.05694 -0.24009,0.143 -0.40767,0.23254c0.35601,0.59985 0.70692,1.19492 1.03664,1.80269c0.70141,-0.0141 1.40144,0.00631 2.10462,-0.04617c0,0 0.04025,-0.00286 0.09545,0.00639c-0.02634,-0.22313 -0.02866,-0.44999 -0.01554,-0.67354c0,0 0.02483,-0.37926 0.40409,-0.35443c0.25666,0.01681 0.32825,0.19594 0.34772,0.30999c0.04408,0.00973 0.09129,0.02908 0.14127,0.0613z"/></g></g></g><path d="M225.88232,184.10948l-1.18763,17.10189l-11.16373,0.23753l-1.42516,-0.71258l-1.42516,-15.4392l1.66268,-6.65073l4.75052,-2.37526l5.22558,1.18763l2.37526,2.37526z" data-paper-data="{&quot;index&quot;:null}" fill="#949494" stroke="#000000" stroke-width="2.5" stroke-linecap="round"/><g><g stroke="#000000" stroke-width="2.5"><path d="M263.78726,159.76669c0,0 0.99085,-1.17561 1.14756,-2.34729c0.14017,-1.04798 -0.25133,-4.35316 -0.25133,-4.35316c0,0 -2.8606,-5.14315 -1.09659,-8.01243c0.20024,-0.32571 5.14193,-7.13493 11.51355,-9.23926c4.55415,-1.50409 10.99852,1.25561 11.65036,1.981c0.50386,0.56071 4.25985,2.89185 7.12234,6.3092c4.03406,4.816 7.11674,10.62381 7.11674,10.62381l-7.78364,11.3521l-18.71631,-9.27773l-2.59386,6.92806z" fill="#949494" stroke-linecap="butt"/><path d="M297.04764,160.9569l-10.58888,-8.08509l-1.52693,-4.44799l1.39414,-10.42291l8.46447,8.10406l5.70463,8.34116z" fill="#000000" stroke-linecap="round"/><path d="M283.348,149.50024l1.49372,0.73027" fill="none" stroke-linecap="round"/><path d="M283.48077,152.4735l-2.02958,-1.25663" fill="none" stroke-linecap="round"/><path d="M280.94379,153.87713l-1.17602,-0.83934" fill="none" stroke-linecap="round"/><path d="M291.72227,165.35169c0,0 -11.04838,-5.84217 -17.07034,-8.15926c-1.48165,-0.5701 -1.06013,1.68491 -1.95054,1.26173c-7.88919,-3.7494 -7.80236,-5.98604 -8.0925,-7.23145c-0.72063,-3.09323 -1.24516,-7.01196 -0.89254,-7.48961c0.45343,-0.6142 2.78298,-1.43726 2.78298,-1.43726l2.85127,3.10267l4.07337,4.10657l4.59974,3.57071l8.85805,4.59499l5.37743,7.38802" fill="#373737" stroke-linecap="round"/><path d="M285.1751,171.82867l-2.50957,0.49658l-6.72597,-10.35941l-1.02436,-2.45011l1.47481,-2.09033l1.85244,-0.63632l1.84205,0.22002l0.37764,1.454l-0.5486,1.77217l-0.47872,1.4436z" fill="#000000" stroke-linecap="round"/><path d="M269.40178,158.01691l-1.36095,2.24296" fill="none" stroke-linecap="round"/><path d="M265.9828,155.81661l7.36906,4.39583" fill="none" stroke-linecap="round"/><path d="M278.25031,137.75434l-2.00586,1.3989l-0.51214,2.12916l-2.36625,-3.27197l2.19554,-3.95009l4.65664,-1.9537l0.44576,2.33306l-1.24714,3.09179z" fill="#151515" stroke-linecap="round"/><path d="M277.27263,141.37661l-3.19611,-1.03375l-0.03319,-3.71773l1.4795,-0.86305l3.07281,-0.87728l1.81144,0.6212l0.64965,1.37517l0.54533,1.58857l-0.72078,2.55594z" fill="none" stroke-linecap="round"/></g><path d="M285.5171,145.82063c-0.9414,-0.33731 -0.60408,-1.27871 -0.60408,-1.27871l0.57584,-1.2566c1.20796,-1.09151 2.20845,-1.89309 3.78234,-2.35398c0,0 0.96326,-0.26858 1.23183,0.69468c0.26858,0.96326 -0.69467,1.23183 -0.69467,1.23183c-1.27152,0.3303 -2.01783,1.0404 -2.9775,1.91036l-0.03506,0.44834c0,0 -0.33731,0.9414 -1.27871,0.60408z" fill="#54ff00" stroke="none" stroke-width="0.5" stroke-linecap="butt"/><path d="M294.0559,146.43273l3.62745,7.51177l-9.17281,-2.41422" fill="none" stroke="#54ff00" stroke-width="2.5" stroke-linecap="round"/></g><g data-paper-data="{&quot;index&quot;:null}"><g><path d="M271.91294,168.05249l-4.40213,3.98535l-3.34769,-3.69779l4.40213,-3.98534z" fill="#000000" stroke="none" stroke-width="0" stroke-linecap="butt"/><path d="M288.55099,143.2107c0,0 1.2326,-0.2982 1.48508,0.70761c0.66159,2.63562 2.6309,15.68983 2.6309,15.68983l-12.52316,12.35424c0,0 -3.37357,-6.52766 -4.97045,-9.01118c-0.61951,-0.96349 7.20434,-9.41734 7.0279,-10.18993c-0.1834,-0.80306 3.0827,1.07879 3.86343,0.86494c0.88151,-0.24144 -0.70147,-2.55019 -0.79523,-3.07854c-0.26416,-1.48864 -0.27928,-4.29271 -0.27928,-4.29271l3.56082,-3.04425z" fill="#949494" stroke="#000000" stroke-width="2.5" stroke-linecap="butt"/><path d="M279.49883,173.7655l-9.41544,-4.11888l-1.08318,-2.77808l0.39654,-2.5508l2.05569,-1.90994l3.31572,-0.34714z" fill="#949494" stroke="#000000" stroke-width="2.5" stroke-linecap="butt"/><path d="M276.89206,167.23222l-0.60348,2.03699l-1.98035,1.07513" fill="none" stroke="#000000" stroke-width="2.5" stroke-linecap="round"/><path d="M291.40313,154.52522l-5.94495,-0.87494" fill="none" stroke="#000000" stroke-width="2.5" stroke-linecap="round"/></g><g stroke="none" stroke-linecap="butt"><path d="M291.74132,158.28743l-10.79825,12.245l-6.06487,-8.19219l2.72348,-1.86481l5.38506,-6.22126z" fill="#8c6200" stroke-width="NaN"/><path d="M283.47665,167.55121l-2.75975,2.78313l-5.47256,-8.1121l2.91262,-1.9216z" fill="#8c0081" stroke-width="NaN"/><path d="M292.02637,158.64009l-10.74754,-1.9014l1.5761,-2.56483l4.18046,-0.94315l-0.81129,-2.97363l0.09519,-3.46552l0.83013,-1.07667l2.15486,-1.69914z" fill="#8c0081" stroke-width="0"/><g fill="#ffffff" stroke-width="0.5"><path d="M280.95306,164.75358c-0.0004,0.00021 -0.00079,0.00042 -0.0012,0.00063c-0.24284,0.12621 -0.36905,-0.11663 -0.36905,-0.11663c-0.60422,-1.19263 0.08492,-2.16736 1.19234,-2.25239c-0.04807,0.12093 0.05858,0.21884 0.05858,0.21884c0.7233,0.66406 1.43174,1.33965 2.19108,1.95907c-0.03438,0.46694 -0.18372,0.87142 -0.48924,1.00832c-0.43036,0.19285 -1.02499,0.07239 -1.44606,-0.03123c-0.53697,-0.17899 -0.80787,-0.43065 -1.13644,-0.7866zM282.3637,164.80888c-0.07667,0.0835 -0.07112,0.21334 0.01238,0.29001c0.0835,0.07667 0.21334,0.07113 0.29001,-0.01238c0.07667,-0.0835 0.07113,-0.21333 -0.01238,-0.29c-0.0835,-0.07667 -0.21334,-0.07113 -0.29001,0.01238zM281.3958,163.68806c-0.0835,-0.07667 -0.21334,-0.07113 -0.29001,0.01238c-0.07667,0.0835 -0.07112,0.21334 0.01238,0.29001c0.0835,0.07666 0.21334,0.07112 0.29001,-0.01238c0.07667,-0.08351 0.07112,-0.21335 -0.01239,-0.29002z"/><path d="M280.91077,161.73626c-0.27997,-0.25704 -0.02293,-0.53701 -0.02293,-0.53701l-0.02113,0.08235c0.05999,-0.20137 0.17148,-0.38316 0.31142,-0.5468l-0.01789,-0.00723l0.00477,-0.01178l-0.09077,-0.06803l0.28324,-0.37801c0.00836,-0.01145 0.01744,-0.02254 0.02725,-0.03322c0.14195,-0.15462 0.38239,-0.1649 0.53701,-0.02293c0.08414,0.07725 0.12552,0.18366 0.12291,0.28953c0.00678,0.0003 0.01053,0.00067 0.01053,0.00067c0.59139,0.06068 1.16826,0.1676 1.74804,0.26137c-0.08204,-0.27244 -0.1589,-0.54736 -0.22932,-0.82578c-0.19403,-0.76712 -0.69571,-1.49572 -0.46247,-2.25976c-0.01619,0.05221 -0.05648,0.18222 -0.07355,0.23734l-0.1263,-0.04879l-0.00689,0.05598l-0.40124,-0.04938c-0.07753,-0.00858 -0.15313,-0.041 -0.21499,-0.0978c-0.15463,-0.14196 -0.1649,-0.38239 -0.02293,-0.53701c0.02351,-0.02561 0.04973,-0.04728 0.07781,-0.06493l0.31992,-0.21102l0.03733,0.05659c0.25817,-0.20684 0.51661,-0.26391 0.99852,-0.2355c0.10107,-0.0467 0.24688,-0.06616 0.39951,0.07397c0.27997,0.25705 0.02293,0.53701 0.02293,0.53701l-0.34976,0.15616c-0.04361,-0.00528 -0.08587,-0.00701 -0.12678,-0.00639c0.17239,0.54975 0.39301,1.32556 0.43519,1.46171c0.19625,0.63345 0.39279,1.25885 0.59567,1.88082c0.19049,0.02137 0.3822,0.03823 0.57572,0.04856c0.37414,0.01997 0.7423,-0.01152 1.11185,-0.03075c-0.06621,-0.25182 -0.09192,-0.53506 -0.05626,-0.90007l-0.0192,-0.4497c-0.00416,-0.09718 0.02877,-0.19594 0.09975,-0.27326c0.14197,-0.15463 0.38238,-0.1649 0.53701,-0.02293c0.03498,0.03211 0.06258,0.06926 0.08269,0.10932l0.35277,0.66332l-0.02668,0.01419c0.38392,0.50751 0.58946,0.99026 0.75364,1.86695l0.01184,0.18779c0,0 0.01621,0.37974 -0.36352,0.39595c-0.03699,0.00158 -0.07052,-0.0006 -0.10093,-0.00582c-0.02495,0.01898 -0.05423,0.03666 -0.08848,0.0525c-0.34494,0.15956 -0.50452,-0.18538 -0.50452,-0.18538c-0.12613,-0.27554 -0.25185,-0.50169 -0.36334,-0.71185c-0.49014,0.00407 -0.97413,0.0743 -1.46893,0.0487c-0.09085,-0.0047 -0.18136,-0.0109 -0.27162,-0.01837c0.1875,0.55522 0.38215,1.10927 0.58827,1.66548c0.34616,-0.04127 0.66374,0.00156 0.81254,0.24113c0.69082,1.11229 -1.48869,1.15075 -1.901,1.10035l-0.246,-0.09174c0,0 -0.34689,-0.15532 -0.19157,-0.5022c0.00896,-0.01999 0.01854,-0.0383 0.02866,-0.05509c-0.60919,-0.51592 -1.18974,-1.06401 -1.7783,-1.60617c0.0668,0.00844 0.13456,0.0199 0.2031,0.03451c0.10552,0.02248 0.99928,0.20651 1.086,0.26997c0.25738,0.18839 0.4476,0.71675 0.50798,1.2731c0.0145,-0.02025 0.02988,-0.03783 0.04585,-0.05303c0.03974,-0.19236 0.24381,-0.27021 0.24381,-0.27021c0.10488,-0.03975 0.26085,-0.10026 0.44117,-0.16011c-0.24923,-0.6515 -0.49425,-1.29741 -0.71623,-1.95226c-0.69367,-0.10494 -1.38011,-0.24367 -2.08202,-0.31108c0,0 -0.04014,-0.004 -0.09298,-0.02247c-0.01185,0.22437 -0.04801,0.44835 -0.09881,0.66644c0,0 -0.08872,0.36958 -0.4583,0.28085c-0.25011,-0.06005 -0.29031,-0.24871 -0.29018,-0.36441c-0.04178,-0.01705 -0.08504,-0.04413 -0.12884,-0.08435z"/></g></g></g><g fill="none" stroke="#ffa000" stroke-width="5" stroke-linecap="round"><path d="M248.58133,133.88581l12.05274,13.70658"/><path d="M237.90674,140.52089l17.97416,10.79256"/><path d="M233.75566,151.96705l18.0075,4.57234"/></g></g></g></g></svg>
