<svg version="1.1" xmlns="http://www.w3.org/2000/svg" xmlns:xlink="http://www.w3.org/1999/xlink" width="101.30154" height="124.25" viewBox="0,0,101.30154,124.25"><g transform="translate(-186.44846,-117.5)"><g data-paper-data="{&quot;isPaintingLayer&quot;:true}" fill-rule="nonzero" stroke-linejoin="miter" stroke-miterlimit="10" stroke-dasharray="" stroke-dashoffset="0" style="mix-blend-mode: normal"><path d="M191.5,241.5v-124h96v124z" fill="none" stroke="none" stroke-width="1" stroke-linecap="butt"/><g fill="#00abab" stroke="none" stroke-width="1" stroke-linecap="butt"><path d="M204.5,119v13l-11.26,-6.5z"/><path d="M209,120.5h13l-6.5,11.26z"/><path d="M237.76,125.5l-11.26,6.5v-13z"/></g><g fill="#ffffff" stroke="none" stroke-width="1" stroke-linecap="butt"><path d="M204.5,135v13l-11.26,-6.5z"/><path d="M209,136.5h13l-6.5,11.26z"/><path d="M237.76,141.5l-11.26,6.5v-13z"/></g><text transform="translate(191.5,136.7)" font-size="13.3333" xml:space="preserve" fill="#00ab0e" fill-rule="nonzero" stroke="none" stroke-width="1" stroke-linecap="butt" stroke-linejoin="miter" stroke-miterlimit="10" stroke-dasharray="" stroke-dashoffset="0" font-family="sans-serif" font-weight="400" text-anchor="middle" style="mix-blend-mode: normal"><tspan x="0" dy="0">✓</tspan></text><g fill="#888888" stroke="none" stroke-width="1" stroke-linecap="butt"><path d="M204,158.5c0,0 0.25,-1.75 0.75,-2.25c0.5,-0.5 2.25,-0.75 2.25,-0.75h15c0,0 2.14754,0.39754 2.625,0.875c0.51906,0.51906 0.375,2.125 0.375,2.125h10.5v6h-42v-6z"/><path d="M196.5,187.5v-20h36v20z"/><path d="M200.5,209.5c-2.20914,0 -4,-1.79086 -4,-4v-34c0,-2.20914 1.79086,-4 4,-4h28c2.20914,0 4,1.79086 4,4v34c0,2.20914 -1.79086,4 -4,4z"/></g><g fill="none" stroke="#000000" stroke-width="2.5" stroke-linecap="round"><path d="M196,225.5c0,-6.35127 5.14873,-11.5 11.5,-11.5c6.35127,0 11.5,5.14873 11.5,11.5c0,6.35127 -5.14873,11.5 -11.5,11.5c-6.35127,0 -11.5,-5.14873 -11.5,-11.5z"/><path d="M203.2,225.5c0,-2.37482 1.92518,-4.3 4.3,-4.3c2.37482,0 4.3,1.92518 4.3,4.3c0,2.37482 -1.92518,4.3 -4.3,4.3c-2.37482,0 -4.3,-1.92518 -4.3,-4.3z"/><path d="M219.5,225.5h3"/><path d="M192.5,225.5h3"/><path d="M207.5,237.5v3"/><path d="M207.5,210.5v3"/></g><g fill="none" stroke="#00ab0e" stroke-width="2.5" stroke-linecap="round"><path d="M224.5,225.5c0,-8.28427 6.71573,-15 15,-15c8.28427,0 15,6.71573 15,15c0,8.28427 -6.71573,15 -15,15c-8.28427,0 -15,-6.71573 -15,-15z"/><path d="M239.5,219.1v12.8"/><path d="M233.1,225.5h12.8"/></g><g fill="none" stroke="#ab0000" stroke-width="2.5" stroke-linecap="round"><path d="M256.5,225.5c0,-8.28427 6.71573,-15 15,-15c8.28427,0 15,6.71573 15,15c0,8.28427 -6.71573,15 -15,15c-8.28427,0 -15,-6.71573 -15,-15z"/><path d="M265.1,225.5h12.8"/></g><path d="M202.375,168.625v39.5" fill="none" stroke="#000000" stroke-width="2.5" stroke-linecap="round"/><path d="M209.625,168.625v39.75" fill="none" stroke="#000000" stroke-width="2.5" stroke-linecap="round"/><path d="M215.375,168.625v39.5" fill="none" stroke="#000000" stroke-width="2.5" stroke-linecap="round"/><path d="M221.125,168.625v39.75" fill="none" stroke="#000000" stroke-width="2.5" stroke-linecap="round"/><path d="M227.625,168.875v39.5" fill="none" stroke="#000000" stroke-width="2.5" stroke-linecap="round"/></g></g></svg>